<svg xmlns="http://www.w3.org/2000/svg" xmlns:xlink="http://www.w3.org/1999/xlink" preserveAspectRatio="xMidYMid" width="26" height="27" viewBox="0 0 26 27">
  <defs>
    <style>

      .cls-2 {
        fill: #0ca5b0;
      }
    </style>
  </defs>
  <path d="M0.000,27.000 C0.000,27.000 0.000,26.000 0.000,26.000 C0.000,26.000 0.000,25.000 0.000,25.000 C0.000,25.000 0.000,0.000 0.000,0.000 C0.000,0.000 2.000,0.000 2.000,0.000 C2.000,0.000 2.000,25.000 2.000,25.000 C2.000,25.000 26.000,25.000 26.000,25.000 C26.000,25.000 26.000,27.000 26.000,27.000 C26.000,27.000 0.000,27.000 0.000,27.000 ZM24.000,4.414 C24.000,4.414 5.414,23.000 5.414,23.000 C5.414,23.000 4.000,23.000 4.000,23.000 C4.000,23.000 4.000,23.000 4.000,23.000 C4.000,23.000 4.000,21.586 4.000,21.586 C4.000,21.586 23.586,2.000 23.586,2.000 C23.586,2.000 13.000,2.000 13.000,2.000 C13.000,2.000 13.000,0.000 13.000,0.000 C13.000,0.000 26.000,0.000 26.000,0.000 C26.000,0.000 26.000,1.000 26.000,1.000 C26.000,1.000 26.000,2.000 26.000,2.000 C26.000,2.000 26.000,13.000 26.000,13.000 C26.000,13.000 24.000,13.000 24.000,13.000 C24.000,13.000 24.000,4.414 24.000,4.414 Z" id="path-1" class="cls-2" fill-rule="evenodd"/>
</svg>
